<?xml version="1.0" encoding="utf-8"?>
<!-- Generator: Adobe Illustrator 17.0.0, SVG Export Plug-In . SVG Version: 6.00 Build 0)  -->
<!DOCTYPE svg PUBLIC "-//W3C//DTD SVG 1.1//EN" "http://www.w3.org/Graphics/SVG/1.1/DTD/svg11.dtd">
<svg version="1.1" id="Calque_1" xmlns="http://www.w3.org/2000/svg" xmlns:xlink="http://www.w3.org/1999/xlink" x="0px" y="0px"
	 width="297.667px" height="145.333px" viewBox="0 0 297.667 145.333" enable-background="new 0 0 297.667 145.333"
	 xml:space="preserve">
<text transform="matrix(1 0 0 1 53 34.1823)" fill="#1E1D1C" font-family="'OpenSans'" font-size="12">call</text>
<rect x="19.5" y="20.667" fill="#448ECC" width="20" height="20"/>
<text transform="matrix(1 0 0 1 53 57.1823)" fill="#1E1D1C" font-family="'OpenSans'" font-size="12">text</text>
<rect x="19.5" y="43.667" fill="#68A950" width="20" height="20"/>
<circle fill="#A8A8A8" cx="29.5" cy="81.167" r="7.5"/>
<circle fill="#DFDFDF" cx="29.5" cy="101.167" r="7.5"/>
<text transform="matrix(1 0 0 1 53 84.6823)" fill="#1E1D1C" font-family="'OpenSans'" font-size="12">in network</text>
<text transform="matrix(1 0 0 1 53 104.6823)" fill="#1E1D1C" font-family="'OpenSans'" font-size="12">out network</text>
<text transform="matrix(1 0 0 1 142.333 81.9066)" fill="#1E1D1C" font-family="'OpenSans-Bold'" font-size="12">BALANCE</text>
<rect x="149.833" y="94.667" fill="#68A950" width="61.167" height="5"/>
<circle fill="#A8A8A8" cx="149.833" cy="97.167" r="7.5"/>
<circle fill="#A8A8A8" cx="211" cy="97.167" r="7.5"/>
<rect x="187.25" y="94.667" fill="#1E4765" width="12.333" height="5"/>
<text transform="matrix(1 0 0 1 203.5004 120.6823)" fill="#1E1D1C" font-family="'OpenSans'" font-size="12">this user texts</text>
<text transform="matrix(1 0 0 1 203.5004 135.0823)" fill="#1E1D1C" font-family="'OpenSans'" font-size="12">more often</text>
<rect x="9.671" y="10.468" fill="none" stroke="#A8A8A8" stroke-miterlimit="10" width="122.579" height="106.699"/>
<text transform="matrix(1 0 0 1 144 24.6667)" fill="#1E1D1C" font-family="'OpenSans-Bold'" font-size="12">SCALE</text>
<rect x="144" y="33.292" fill="#448ECC" width="61.167" height="3"/>
<text transform="matrix(1 0 0 1 215.5 38.6667)" fill="#1E1D1C" font-family="'OpenSans'" font-size="12">20 texts total</text>
<rect x="144" y="43.682" fill="#68A950" width="61.167" height="6"/>
<text transform="matrix(1 0 0 1 215.5 50.6667)" fill="#1E1D1C" font-family="'OpenSans'" font-size="12">40 calls total</text>
</svg>
