<?xml version="1.0" encoding="utf-8"?>
<!-- Generator: Adobe Illustrator 17.0.0, SVG Export Plug-In . SVG Version: 6.00 Build 0)  -->
<!DOCTYPE svg PUBLIC "-//W3C//DTD SVG 1.1//EN" "http://www.w3.org/Graphics/SVG/1.1/DTD/svg11.dtd">
<svg version="1.1" id="Calque_1" xmlns="http://www.w3.org/2000/svg" xmlns:xlink="http://www.w3.org/1999/xlink" x="0px" y="0px"
	 width="309.333px" height="169.667px" viewBox="0 0 309.333 169.667" enable-background="new 0 0 309.333 169.667"
	 xml:space="preserve">
<text transform="matrix(1 0 0 1 53 34.1823)" fill="#1E1D1C" font-family="'OpenSans'" font-size="12">call</text>
<rect x="19.5" y="20.667" fill="#448ECC" width="20" height="20"/>
<text transform="matrix(1 0 0 1 53 57.1823)" fill="#1E1D1C" font-family="'OpenSans'" font-size="12">text</text>
<rect x="19.5" y="43.667" fill="#68A950" width="20" height="20"/>
<circle fill="#A8A8A8" cx="29.5" cy="101.167" r="7.5"/>
<circle fill="#DFDFDF" cx="29.5" cy="121.167" r="7.5"/>
<text transform="matrix(1 0 0 1 53 104.6823)" fill="#1E1D1C" font-family="'OpenSans'" font-size="12">in network</text>
<text transform="matrix(1 0 0 1 53 124.6823)" fill="#1E1D1C" font-family="'OpenSans'" font-size="12">out network</text>
<text transform="matrix(1 0 0 1 152.333 101.9066)" fill="#1E1D1C" font-family="'OpenSans-Bold'" font-size="12">BALANCE</text>
<rect x="159.833" y="114.667" fill="#68A950" width="61.167" height="5"/>
<circle fill="#A8A8A8" cx="159.833" cy="117.167" r="7.5"/>
<circle fill="#A8A8A8" cx="221" cy="117.167" r="7.5"/>
<rect x="197.25" y="114.667" fill="#1E4765" width="12.333" height="5"/>
<text transform="matrix(1 0 0 1 213.5004 140.6823)"><tspan x="0" y="0" fill="#1E1D1C" font-family="'OpenSans'" font-size="12">this user texts</tspan><tspan x="0" y="14.4" fill="#1E1D1C" font-family="'OpenSans'" font-size="12">more often</tspan></text>
<rect x="9.671" y="10.468" fill="none" stroke="#A8A8A8" stroke-miterlimit="10" width="122.579" height="128.448"/>
<text transform="matrix(1 0 0 1 154 34.6667)" fill="#1E1D1C" font-family="'OpenSans-Bold'" font-size="12">SCALE</text>
<rect x="154" y="43.292" fill="#448ECC" width="61.167" height="3"/>
<text transform="matrix(1 0 0 1 225.5 48.6667)" fill="#1E1D1C" font-family="'OpenSans'" font-size="12">20 texts total</text>
<rect x="154" y="53.682" fill="#68A950" width="61.167" height="6"/>
<text transform="matrix(1 0 0 1 225.5 60.6667)" fill="#1E1D1C" font-family="'OpenSans'" font-size="12">40 calls total</text>
</svg>
